<?xml version="1.0" encoding="utf-8"?>
<svg width="1420px" height="890px" viewbox="0 0 1420 890" version="1.1" xmlns:xlink="http://www.w3.org/1999/xlink" xmlns="http://www.w3.org/2000/svg">
  <defs>
    <linearGradient x1="0.5" y1="0" x2="0.5" y2="0.33048245" id="gradient_1">
      <stop offset="0" stop-color="#414141" />
      <stop offset="1" stop-color="#181818" />
    </linearGradient>
  </defs>
  <path d="M3.999 0L1416 0Q1416.2 0 1416.39 0.0192563Q1416.59 0.0385126 1416.78 0.0768396Q1416.97 0.115167 1417.16 0.172196Q1417.35 0.229224 1417.53 0.304406Q1417.71 0.379587 1417.89 0.472197Q1418.06 0.564807 1418.22 0.673953Q1418.39 0.783099 1418.54 0.907731Q1418.69 1.03236 1418.83 1.17128Q1418.97 1.3102 1419.09 1.46206Q1419.22 1.61393 1419.33 1.77727Q1419.44 1.94062 1419.53 2.11388Q1419.62 2.28715 1419.7 2.46865Q1419.77 2.65015 1419.83 2.83815Q1419.88 3.02615 1419.92 3.21883Q1419.96 3.41152 1419.98 3.60703Q1420 3.80254 1420 3.999L1420 886.001Q1420 886.197 1419.98 886.393Q1419.96 886.588 1419.92 886.781Q1419.88 886.974 1419.83 887.162Q1419.77 887.35 1419.7 887.531Q1419.62 887.713 1419.53 887.886Q1419.44 888.059 1419.33 888.223Q1419.22 888.386 1419.09 888.538Q1418.97 888.69 1418.83 888.829Q1418.69 888.968 1418.54 889.092Q1418.39 889.217 1418.22 889.326Q1418.06 889.435 1417.89 889.528Q1417.71 889.62 1417.53 889.695Q1417.35 889.771 1417.16 889.828Q1416.97 889.885 1416.78 889.923Q1416.59 889.961 1416.39 889.981Q1416.2 890 1416 890L3.999 890Q3.80254 890 3.60703 889.981Q3.41152 889.961 3.21883 889.923Q3.02615 889.885 2.83815 889.828Q2.65015 889.771 2.46865 889.695Q2.28715 889.62 2.11388 889.528Q1.94062 889.435 1.77727 889.326Q1.61393 889.217 1.46206 889.092Q1.3102 888.968 1.17128 888.829Q1.03236 888.69 0.907731 888.538Q0.783099 888.386 0.673953 888.223Q0.564807 888.059 0.472197 887.886Q0.379587 887.713 0.304406 887.531Q0.229224 887.35 0.172196 887.162Q0.115167 886.974 0.0768396 886.781Q0.0385126 886.588 0.0192563 886.393Q0 886.197 0 886.001L0 3.999Q0 3.80254 0.0192563 3.60703Q0.0385126 3.41152 0.0768396 3.21883Q0.115167 3.02615 0.172196 2.83815Q0.229224 2.65015 0.304406 2.46865Q0.379587 2.28715 0.472197 2.11388Q0.564807 1.94062 0.673953 1.77727Q0.783099 1.61393 0.907731 1.46206Q1.03236 1.3102 1.17128 1.17128Q1.3102 1.03236 1.46206 0.907731Q1.61393 0.783099 1.77727 0.673953Q1.94062 0.564807 2.11388 0.472197Q2.28715 0.379587 2.46865 0.304406Q2.65015 0.229224 2.83815 0.172196Q3.02615 0.115167 3.21883 0.0768396Q3.41152 0.0385126 3.60703 0.0192563Q3.80254 0 3.999 0Z" id="Rectangle" fill="url(#gradient_1)" fill-rule="evenodd" stroke="none" />
</svg>