<?xml version="1.0" encoding="utf-8"?>
<svg width="16px" height="16px" viewbox="0 0 16 16" version="1.1" xmlns:xlink="http://www.w3.org/1999/xlink" xmlns="http://www.w3.org/2000/svg">
  <path d="M0 8C0 12.4183 3.58178 16 8.00016 16C12.4185 16 16 12.4183 16 8C16 3.58171 12.4185 0 8.00016 0C3.58178 0 0 3.58171 0 8L0 8L0 8ZM3.40454 13.691C3.84476 13.434 5.6501 13.083 6.07285 12.8169C6.5407 12.5225 6.39047 10.9112 6.39047 10.9112L6.28647 10.7962C6.16849 10.6658 6.02669 10.4244 5.97041 10.259L5.76 9.64078L5.27999 8.31999C5.27999 8.31999 4.96 7.764 4.96 7.35999C4.96 6.95599 5.12 6.71999 5.12 6.71999C5.12 6.71999 4.96 5.58132 4.96 4.79999C4.96 3.35999 6.88 2.39999 8 2.39999C9.12 2.39999 11.04 3.35999 11.04 4.79999C11.04 5.581 10.88 6.71999 10.88 6.71999C10.88 6.71999 11.04 6.95599 11.04 7.35999C11.04 7.764 10.72 8.31999 10.72 8.31999L10.24 9.64078L10.0248 10.259C9.96691 10.4252 9.82225 10.6673 9.70477 10.7962L9.59999 10.9112C9.59999 10.9112 9.61429 12.5225 10.0825 12.8169C10.4995 13.0796 12.2645 13.4251 12.733 13.6808C12.7333 13.7119 10.7175 15.36 8 15.36C5.28182 15.36 3.43217 13.7183 3.40454 13.691L3.40454 13.691L3.40454 13.691Z" id="contacts" fill="#ADAFB2" fill-rule="evenodd" stroke="none" />
</svg>