<?xml version="1.0" encoding="utf-8"?>
<svg width="16px" height="10px" viewbox="0 0 16 10" version="1.1" xmlns:xlink="http://www.w3.org/1999/xlink" xmlns="http://www.w3.org/2000/svg">
  <path d="M3.04761 0.380952L16 0.380952L16 1.14286L3.04761 1.14286L3.04761 0.380952L3.04761 0.380952ZM3.04761 4.57143L16 4.57143L16 5.33333L3.04761 5.33333L3.04761 4.57143L3.04761 4.57143ZM3.04761 8.7619L16 8.7619L16 9.52381L3.04761 9.52381L3.04761 8.7619L3.04761 8.7619ZM0 0L1.52381 0L1.52381 1.52381L0 1.52381L0 0L0 0ZM0 4.19048L1.52381 4.19048L1.52381 5.71429L0 5.71429L0 4.19048L0 4.19048ZM0 8.38095L1.52381 8.38095L1.52381 9.90476L0 9.90476L0 8.38095L0 8.38095Z" id="menu" fill="#ADAFB2" fill-rule="evenodd" stroke="none" />
</svg>