<?xml version="1.0" encoding="utf-8"?>
<svg width="14px" height="17px" viewbox="0 0 14 17" version="1.1" xmlns:xlink="http://www.w3.org/1999/xlink" xmlns="http://www.w3.org/2000/svg">
  <path d="M14 0.737073L14 13.5306C13.9753 14.1325 13.7455 15.2653 11.375 15.2653C8.75002 15.2653 8.75002 13.8695 8.75002 13.3571C8.75002 12.8448 8.79607 11.4565 11.4211 11.4565C12.1119 11.4565 13.2632 11.4565 13.2632 11.087C13.2632 11.087 13.2632 4.43138 13.2632 4.43138C13.2632 4.02505 12.9413 3.76583 12.5407 3.8532L5.51197 5.38593C5.11296 5.47294 4.78951 5.87215 4.78951 6.28478L4.78951 15.0918C4.7643 15.6894 4.99282 17 2.62504 17C5.29187e-05 17 5.29187e-05 15.6059 5.29187e-05 15.0918C5.29187e-05 14.5778 -0.0459995 13.3043 2.57899 13.3043C3.26988 13.3043 4.05267 13.3043 4.05267 12.9348C4.05267 12.9348 4.05267 5.91304 4.05267 5.91304L4.05267 2.58401C4.05267 2.17742 4.37459 1.78097 4.77324 1.69818L12.95 0L13.265 0C13.6709 0 14 0.334467 14 0.737073Z" id="music" fill="#ADAFB2" fill-rule="evenodd" stroke="none" />
</svg>