<?xml version="1.0" encoding="utf-8"?>
<svg width="16px" height="15px" viewbox="0 0 16 15" version="1.1" xmlns:xlink="http://www.w3.org/1999/xlink" xmlns="http://www.w3.org/2000/svg">
  <path d="M1.2823 3.17518C0.574166 3.17518 0 3.76198 0 4.48583L0 13.6894C0 14.4136 0.574106 15 1.2823 15L14.7177 15C15.4258 15 16 14.4132 16 13.6894L16 4.48583C16 3.17518 15.68 3.17518 15.68 3.17518L2.24 0.218979L2.24 0.875913L12.32 3.17518L1.2823 3.17518L1.2823 3.17518ZM13.1199 6.78832C13.6501 6.78832 14.0799 6.34714 14.0799 5.80292C14.0799 5.2587 13.6501 4.81752 13.1199 4.81752C12.5897 4.81752 12.1599 5.2587 12.1599 5.80292C12.1599 6.34714 12.5897 6.78832 13.1199 6.78832L13.1199 6.78832L13.1199 6.78832ZM13.1199 9.74453C13.6501 9.74453 14.0799 9.30335 14.0799 8.75912C14.0799 8.2149 13.6501 7.77372 13.1199 7.77372C12.5897 7.77372 12.1599 8.2149 12.1599 8.75912C12.1599 9.30335 12.5897 9.74453 13.1199 9.74453L13.1199 9.74453L13.1199 9.74453ZM4.63991 6.45985C4.90501 6.45985 5.11991 6.23926 5.11991 5.96715C5.11991 5.69504 4.90501 5.47445 4.63991 5.47445C4.37482 5.47445 4.15991 5.69504 4.15991 5.96715C4.15991 6.23926 4.37482 6.45985 4.63991 6.45985L4.63991 6.45985L4.63991 6.45985ZM3.35988 7.77372C3.62498 7.77372 3.83988 7.55313 3.83988 7.28102C3.83988 7.00891 3.62498 6.78832 3.35988 6.78832C3.09479 6.78832 2.87988 7.00891 2.87988 7.28102C2.87988 7.55313 3.09479 7.77372 3.35988 7.77372L3.35988 7.77372L3.35988 7.77372ZM2.71999 9.74453C2.98509 9.74453 3.19999 9.52394 3.19999 9.25183C3.19999 8.97971 2.98509 8.75912 2.71999 8.75912C2.45489 8.75912 2.23999 8.97971 2.23999 9.25183C2.23999 9.52394 2.45489 9.74453 2.71999 9.74453L2.71999 9.74453L2.71999 9.74453ZM3.35988 11.7153C3.62498 11.7153 3.83988 11.4947 3.83988 11.2226C3.83988 10.9505 3.62498 10.7299 3.35988 10.7299C3.09479 10.7299 2.87988 10.9505 2.87988 11.2226C2.87988 11.4947 3.09479 11.7153 3.35988 11.7153L3.35988 11.7153L3.35988 11.7153ZM4.63991 13.0292C4.90501 13.0292 5.11991 12.8086 5.11991 12.5365C5.11991 12.2644 4.90501 12.0438 4.63991 12.0438C4.37482 12.0438 4.15991 12.2644 4.15991 12.5365C4.15991 12.8086 4.37482 13.0292 4.63991 13.0292L4.63991 13.0292L4.63991 13.0292ZM6.56008 13.6861C6.82517 13.6861 7.04008 13.4655 7.04008 13.1934C7.04008 12.9213 6.82517 12.7007 6.56008 12.7007C6.29498 12.7007 6.08008 12.9213 6.08008 13.1934C6.08008 13.4655 6.29498 13.6861 6.56008 13.6861L6.56008 13.6861L6.56008 13.6861ZM6.56008 11.7153C6.82517 11.7153 7.04008 11.4947 7.04008 11.2226C7.04008 10.9505 6.82517 10.7299 6.56008 10.7299C6.29498 10.7299 6.08008 10.9505 6.08008 11.2226C6.08008 11.4947 6.29498 11.7153 6.56008 11.7153L6.56008 11.7153L6.56008 11.7153ZM6.56008 9.74453C6.82517 9.74453 7.04008 9.52394 7.04008 9.25183C7.04008 8.97971 6.82517 8.75912 6.56008 8.75912C6.29498 8.75912 6.08008 8.97971 6.08008 9.25183C6.08008 9.52394 6.29498 9.74453 6.56008 9.74453L6.56008 9.74453L6.56008 9.74453ZM6.56008 7.77372C6.82517 7.77372 7.04008 7.55313 7.04008 7.28102C7.04008 7.00891 6.82517 6.78832 6.56008 6.78832C6.29498 6.78832 6.08008 7.00891 6.08008 7.28102C6.08008 7.55313 6.29498 7.77372 6.56008 7.77372L6.56008 7.77372L6.56008 7.77372ZM6.56008 5.80292C6.82517 5.80292 7.04008 5.58233 7.04008 5.31022C7.04008 5.03811 6.82517 4.81752 6.56008 4.81752C6.29498 4.81752 6.08008 5.03811 6.08008 5.31022C6.08008 5.58233 6.29498 5.80292 6.56008 5.80292L6.56008 5.80292L6.56008 5.80292ZM4.95998 8.75912C5.22508 8.75912 5.43998 8.53854 5.43998 8.26642C5.43998 7.99431 5.22508 7.77372 4.95998 7.77372C4.69488 7.77372 4.47998 7.99431 4.47998 8.26642C4.47998 8.53854 4.69488 8.75912 4.95998 8.75912L4.95998 8.75912L4.95998 8.75912ZM4.95998 10.7299C5.22508 10.7299 5.43998 10.5093 5.43998 10.2372C5.43998 9.96512 5.22508 9.74453 4.95998 9.74453C4.69488 9.74453 4.47998 9.96512 4.47998 10.2372C4.47998 10.5093 4.69488 10.7299 4.95998 10.7299L4.95998 10.7299L4.95998 10.7299ZM8.15993 10.7299C8.42503 10.7299 8.63993 10.5093 8.63993 10.2372C8.63993 9.96512 8.42503 9.74453 8.15993 9.74453C7.89483 9.74453 7.67993 9.96512 7.67993 10.2372C7.67993 10.5093 7.89483 10.7299 8.15993 10.7299L8.15993 10.7299L8.15993 10.7299ZM8.15993 8.75912C8.42503 8.75912 8.63993 8.53854 8.63993 8.26642C8.63993 7.99431 8.42503 7.77372 8.15993 7.77372C7.89483 7.77372 7.67993 7.99431 7.67993 8.26642C7.67993 8.53854 7.89483 8.75912 8.15993 8.75912L8.15993 8.75912L8.15993 8.75912ZM8.48 6.45985C8.7451 6.45985 8.96 6.23926 8.96 5.96715C8.96 5.69504 8.7451 5.47445 8.48 5.47445C8.2149 5.47445 8 5.69504 8 5.96715C8 6.23926 8.2149 6.45985 8.48 6.45985L8.48 6.45985L8.48 6.45985ZM10.0801 7.77372C10.3452 7.77372 10.5601 7.55313 10.5601 7.28102C10.5601 7.00891 10.3452 6.78832 10.0801 6.78832C9.815 6.78832 9.6001 7.00891 9.6001 7.28102C9.6001 7.55313 9.815 7.77372 10.0801 7.77372L10.0801 7.77372L10.0801 7.77372ZM10.3999 9.74453C10.665 9.74453 10.8799 9.52394 10.8799 9.25183C10.8799 8.97971 10.665 8.75912 10.3999 8.75912C10.1348 8.75912 9.91992 8.97971 9.91992 9.25183C9.91992 9.52394 10.1348 9.74453 10.3999 9.74453L10.3999 9.74453L10.3999 9.74453ZM9.76003 11.7153C10.0251 11.7153 10.24 11.4947 10.24 11.2226C10.24 10.9505 10.0251 10.7299 9.76003 10.7299C9.49493 10.7299 9.28003 10.9505 9.28003 11.2226C9.28003 11.4947 9.49493 11.7153 9.76003 11.7153L9.76003 11.7153L9.76003 11.7153ZM8.48 13.0292C8.7451 13.0292 8.96 12.8086 8.96 12.5365C8.96 12.2644 8.7451 12.0438 8.48 12.0438C8.2149 12.0438 8 12.2644 8 12.5365C8 12.8086 8.2149 13.0292 8.48 13.0292L8.48 13.0292L8.48 13.0292ZM0.959961 0.218978C0.959961 0.711679 1.91996 0.875912 1.91996 0.875912L1.91996 0.218978C1.91996 0.218978 0.959961 -0.273723 0.959961 0.218978L0.959961 0.218978Z" id="radio" fill="#ADAFB2" fill-rule="evenodd" stroke="none" />
</svg>